<?xml version="1.0" encoding="utf-8"?>
<!-- Generator: Adobe Illustrator 24.3.0, SVG Export Plug-In . SVG Version: 6.00 Build 0)  -->
<svg version="1.1" id="Layer_1" xmlns="http://www.w3.org/2000/svg" xmlns:xlink="http://www.w3.org/1999/xlink" x="0px" y="0px"
	 viewBox="0 0 50 50" style="enable-background:new 0 0 50 50;" xml:space="preserve">
<style type="text/css">
	.st0{display:none;fill:#171717;}
	.st1{fill:none;stroke:#FFFFFF;stroke-miterlimit:10;}
</style>
<rect x="-3.4" y="-2.8" class="st0" width="57.1" height="57.1"/>
<image style="display:none;overflow:visible;enable-background:new    ;" width="1500" height="1600" xlink:href="8F9DF42C.jpg"  transform="matrix(3.330000e-02 0 0 3.120000e-02 2.499912e-02 4.000068e-02)">
</image>
<path class="st1" d="M21,33.6"/>
<path class="st1" d="M21,24.7"/>
<path class="st1" d="M21,24.7"/>
<path class="st1" d="M21,6.8"/>
<g>
	<path class="st1" d="M7.2,26l4.8-5.4c0.4-0.5,0.1-1.3-0.5-1.3H9.4V6.5c0-0.4-0.3-0.8-0.7-0.8H7.2"/>
	<path class="st1" d="M7.7,26l-4.8-5.4c-0.4-0.5-0.1-1.3,0.5-1.3h2.1V6.5c0-0.4,0.3-0.8,0.7-0.8h1.5"/>
</g>
<g>
	<path class="st1" d="M19,26l4.8-5.4c0.4-0.5,0.1-1.3-0.5-1.3h-2.1V6.5c0-0.4-0.3-0.8-0.7-0.8H19"/>
	<path class="st1" d="M19.5,26l-4.8-5.4c-0.4-0.5-0.1-1.3,0.5-1.3h2.1V6.5c0-0.4,0.3-0.8,0.7-0.8h1.5"/>
</g>
<path class="st1" d="M31.4,39.3"/>
<g>
	<line class="st1" x1="2.7" y1="28.9" x2="30" y2="28.9"/>
	<path class="st1" d="M26.4,24.9C26.4,24.9,26.4,24.9,26.4,24.9c0-2.3,1.6-4.1,3.6-4.1s3.6,1.8,3.6,4.1s-1.6,4.1-3.6,4.1"/>
</g>
<g>
	<line class="st1" x1="2.7" y1="32.7" x2="41.8" y2="32.7"/>
	<path class="st1" d="M36.7,38.4c0,0,0,0.1,0,0.1c0,3.2,2.3,5.8,5.2,5.8s5.2-2.6,5.2-5.8s-2.3-5.8-5.2-5.8"/>
</g>
<line class="st1" x1="2.7" y1="36.5" x2="33.6" y2="36.5"/>
</svg>
