<?xml version="1.0" encoding="utf-8"?>
<!-- Generator: Adobe Illustrator 24.3.0, SVG Export Plug-In . SVG Version: 6.00 Build 0)  -->
<svg version="1.1" id="Layer_1" xmlns="http://www.w3.org/2000/svg" xmlns:xlink="http://www.w3.org/1999/xlink" x="0px" y="0px"
	 viewBox="0 0 50 50" style="enable-background:new 0 0 50 50;" xml:space="preserve">
<style type="text/css">
	.st0{fill:none;stroke:#FFFFFF;stroke-miterlimit:10;}
</style>
<path class="st0" d="M24.9,5.8c0,0-6.3,7.2-8.1,9.8c-1.5,2.3-4,7.2-4.7,9.9c-0.6,2.2-0.8,6.8-0.5,9.1c0.2,1.5,1.6,4.3,2.6,5.4
	c1.4,1.6,5.5,3.3,7.6,3.9c1.6,0.5,5.2,0.4,6.8,0c2.1-0.5,5.6-3.2,7.1-4.7c1-1,2.3-3.4,2.7-4.7c0.6-1.9,0.4-6,0-7.9
	c-0.6-3.1-3.8-8.7-5.5-11.3C31.1,12.7,24.9,5.8,24.9,5.8z"/>
</svg>
